<svg xmlns="http://www.w3.org/2000/svg" width="298.46" height="274.008" viewBox="0 0 298.46 274.008">
    <g id="Group" transform="translate(0 50.224)">
        <g id="Woman_standing_10" data-name="Woman standing / 10" transform="translate(0 -50.224)">
            <g id="Woman" transform="translate(0 -0.825)">
                <path id="Base" d="M109.922,26.083a1.315,1.315,0,0,1-1.289-1.289l0-.183a1.322,1.322,0,0,1,1.308-1.275l49.252.082a1.283,1.283,0,0,1,1.32,1.288l0,.183a1.322,1.322,0,0,1-1.308,1.275Zm-80.6-.041.051-.183-.072.016L.475,2.414A1.272,1.272,0,0,1,.27.644L.358.492A1.27,1.27,0,0,1,1.442,0a1.063,1.063,0,0,1,.645.244l28.7,23.1,15.7.036a1.282,1.282,0,0,1,1.252,1.259l0,.183A1.284,1.284,0,0,1,46.5,26.1Z" transform="translate(0 247.371)" fill="#ff5645"/>
                <path id="Shoes" d="M158.042,38.143h0a1.282,1.282,0,0,0-.911-.368H157.1l-49.252-.082a1.369,1.369,0,0,0-.229.024l1.977-18.98,22.508-.067a57.721,57.721,0,0,1,5.284,3.993,27.886,27.886,0,0,0,3.954,3.346,23.117,23.117,0,0,0,5.323,2.658c1.38.537,2.944,1.146,5.135,2.218a36.359,36.359,0,0,1,4.113,2.306,4.782,4.782,0,0,1,2.165,3.287,3.071,3.071,0,0,1,.072.466v0c.008.081.016.158.027.232a2.228,2.228,0,0,1-.14.965ZM44.81,37.8h0a1.142,1.142,0,0,0-.387-.067H44.4L28.7,37.7,0,14.6l0,0L10.233,0,27.875,13.945l.527,1.831c.031.112,3.079,11.235,3.341,11.839.2.445.414.885.661,1.345.337.143.679.283,1.042.432a56.239,56.239,0,0,1,5.125,2.343,36.435,36.435,0,0,1,4.074,2.38,4.793,4.793,0,0,1,2.11,3.326,2.583,2.583,0,0,1,.055.365Z" transform="translate(2.085 233.014)" fill="#474961"/>
                <path id="Legs" d="M18.946,132.961,5.164,123.839a11.886,11.886,0,0,1-2.991-16.664L32.868,63.808s1.1-25.789,4.345-45.124S64.774-.233,73.976.086a18.193,18.193,0,0,1,.785,2.426,4.937,4.937,0,0,1,2.148,1.507l44.809,53.27,6.378,63.7a11.442,11.442,0,0,1-10.788,12.793l-17.922.483a11.332,11.332,0,0,1-11.411-11.039L85.513,69.409S80.4,63.785,74.939,57.575A113.311,113.311,0,0,1,71.3,71.836C66.8,86.3,34.65,128.993,34.65,128.993l-.824,1.143a10.983,10.983,0,0,1-8.914,4.636A10.773,10.773,0,0,1,18.946,132.961Z" transform="translate(14.283 99.648)" fill="#3abf7c"/>
                <path id="Shadow_Legs" data-name="Shadow Legs" d="M24.345,131.762a10.853,10.853,0,0,1-7.674-3.2,11.756,11.756,0,0,1-3.444-7.845L10.764,66.9l-.008-.008C10.219,66.3,5.35,60.931.2,55.074c1.082-6.188,1.274-11.885,1.591-21.323.068-2.021.145-4.311.237-6.784C2.581,12.112.995,3.7,0,0A4.909,4.909,0,0,1,2.16,1.512L46.97,54.782l6.378,63.7a11.958,11.958,0,0,1-.489,4.811,11.677,11.677,0,0,1-2.219,4.042,11.15,11.15,0,0,1-3.562,2.814,10.7,10.7,0,0,1-4.518,1.127l-17.922.482C24.541,131.761,24.442,131.762,24.345,131.762Z" transform="translate(89.032 102.153)" fill="#444" opacity="0.177"/>
                <g id="Browser" transform="translate(104.926 0)">
                    <path id="Background" d="M0,0H183.994a0,0,0,0,1,0,0V109.418a20,20,0,0,1-20,20H20a20,20,0,0,1-20-20V0A0,0,0,0,1,0,0Z" transform="matrix(0.998, -0.07, 0.07, 0.998, 0.961, 28.524)" fill="#f2f6fb"/>
                    <path id="Combined_Shape" data-name="Combined Shape" d="M1.743,3.486A1.743,1.743,0,1,1,1.743,0h3.2a1.743,1.743,0,1,1,0,3.486Zm96.748-.277a1.743,1.743,0,1,1,0-3.486h21.6a1.743,1.743,0,1,1,0,3.486Zm28.357-.081a1.743,1.743,0,1,1,0-3.487h9.895a1.743,1.743,0,1,1,0,3.487Zm16.681-.048a1.743,1.743,0,0,1,0-3.487h21.6a1.743,1.743,0,1,1,0,3.487Z" transform="matrix(0.998, -0.07, 0.07, 0.998, 10.182, 41.358)" fill="#d8deed"/>
                    <g id="iPhone" transform="matrix(0.998, -0.07, 0.07, 0.998, 23.591, 54.322)">
                        <rect id="Body" width="43.899" height="86.854" rx="6.6" fill="#d8deed"/>
                        <ellipse id="Button" cx="3.095" cy="3.164" rx="3.095" ry="3.164" transform="translate(18.869 77.373)" fill="#f2f6fb"/>
                        <rect id="Mic" width="6.191" height="1.726" rx="0.863" transform="translate(19.069 5.107)" fill="#f2f6fb"/>
                        <rect id="Screen" width="37.145" height="66.722" transform="translate(3.341 9.74)" fill="#f2f6fb"/>
                        <path id="Mountains" d="M0,0H0ZM0,0H0Z" transform="translate(17.51 36.882)" fill="#d8deed"/>
                    </g>
                    <path id="Text" d="M1.938,29.566a2,2,0,0,1-2-2V24.593a2,2,0,0,1,2-2H63.172a2,2,0,0,1,2,2v2.973a2,2,0,0,1-2,2Zm.031-11.3a2,2,0,0,1-2-2V13.3a2,2,0,0,1,2-2H45.64a2,2,0,0,1,2,2v2.973a2,2,0,0,1-2,2ZM2,6.972a2,2,0,0,1-2-2V2A2,2,0,0,1,2,0H74.943a2,2,0,0,1,2,2V4.972a2,2,0,0,1-2,2Z" transform="matrix(0.998, -0.07, 0.07, 0.998, 85.887, 73.311)" fill="#e1e5f0"/>
                    <rect id="Title" width="63.562" height="6.972" rx="2" transform="matrix(0.998, -0.07, 0.07, 0.998, 85.13, 62.039)" fill="#d8deed"/>
                    <rect id="Button-2" data-name="Button" width="41.817" height="13.944" rx="6.972" transform="matrix(0.998, -0.07, 0.07, 0.998, 88.624, 114.062)" fill="#474bff"/>
                    <path id="Top_bar" data-name="Top bar" d="M15.241,0H168.753a15.241,15.241,0,0,1,15.241,15.241v0a0,0,0,0,1,0,0H0a0,0,0,0,1,0,0v0A15.241,15.241,0,0,1,15.241,0Z" transform="matrix(0.998, -0.07, 0.07, 0.998, 0, 14.218)" fill="#e1e5f0"/>
                    <ellipse id="Burron" cx="3.086" cy="3.212" rx="3.086" ry="3.212" transform="matrix(0.998, -0.07, 0.07, 0.998, 6.738, 18.315)" fill="#ff5645"/>
                    <ellipse id="Burron-2" data-name="Burron" cx="3.086" cy="3.212" rx="3.086" ry="3.212" transform="matrix(0.998, -0.07, 0.07, 0.998, 16.97, 17.57)" fill="#ffcb3d"/>
                    <ellipse id="Burron-3" data-name="Burron" cx="3.086" cy="3.212" rx="3.086" ry="3.212" transform="matrix(0.998, -0.07, 0.07, 0.998, 27.494, 16.804)" fill="#3abf7c"/>
                </g>
                <path id="T-shirt" d="M10.76,47.613a9.309,9.309,0,0,1-2.435-5.068c-.056-.33-.136-.626-.22-.951L5.043,28.82l-2.965.571A1.792,1.792,0,0,1,.018,27.335L1.71,14.793a9.853,9.853,0,0,1-.131-1.483A9.8,9.8,0,0,1,2.519,8.8l.062-.457A6.722,6.722,0,0,1,4.4,6.212C7.333,3.314,12.325,1.68,18.277.625l1.645-.3a20.269,20.269,0,0,1,7.271.011,17.952,17.952,0,0,1,9.513,2.981A17.39,17.39,0,0,1,39.472,5.6S41.8,7.925,44.84,15.857l1.5,4.672a1.531,1.531,0,0,1-1.1,1.981l-3.659.759.971,12.465c.027.336.049.642.105.972a8.612,8.612,0,0,1-.727,5.369c-1.368,2.625-3.524,6.352-14.561,8.378-.2.037-.4.073-.606.108a37.134,37.134,0,0,1-6.257.6C14.631,51.163,12.394,49.13,10.76,47.613Z" transform="translate(45.923 46.849)" fill="#ff5645"/>
                <path id="Shadow_T-shirt" data-name="Shadow T-shirt" d="M10.235,25.1h0L13.952,25a1.469,1.469,0,0,0,1.1-.545,1.581,1.581,0,0,0,.341-1.209l-.656-4.884a49.96,49.96,0,0,0-2.358-8.646,12.957,12.957,0,0,0-1.147-2.392A17.465,17.465,0,0,0,8.9,4.6,17.657,17.657,0,0,0,0,0,17.3,17.3,0,0,1,10.759,11.174a12.747,12.747,0,0,1,.348,4.935l-.873,8.99Z" transform="matrix(0.985, -0.174, 0.174, 0.985, 73.065, 47.178)" fill="#444" opacity="0.177"/>
                <path id="Skin" d="M99.367,234.117l1.07-17.906c.229.015.464.022.7.022.1,0,.195,0,.292,0l17.922-.483a10.718,10.718,0,0,0,4.082-.922l-1.884,19.292Zm-81.725-4.882L0,215.29l6.294-10.158c.29.237.6.462.91.67l13.783,9.122a10.857,10.857,0,0,0,3.649,1.556l-6.994,12.754h0ZM67.4,90.752a155.989,155.989,0,0,1-18.417-2.473A4.066,4.066,0,0,1,47,87.036a14.956,14.956,0,0,1-2.017-2.7,55.061,55.061,0,0,1-3.9-8.291c-2.5-6.4-4.634-13.78-5.683-17.611a1.7,1.7,0,0,0,.4-.03l18.508-3.562a1.713,1.713,0,0,0,.586-.23l.234-.006L59.839,71.3,74.32,72.97a15.546,15.546,0,0,0,1.126-1.893,8.525,8.525,0,0,0,.727-5.37c-.052-.305-.075-.592-.1-.895l-.006-.077-.995-12.769,3.678-.675a1.426,1.426,0,0,0,.526-.211l3.954,8.507c1.694-.977,5.094-4.8,7.648-7.835,2.772-3.295,5.169-6.393,5.188-6.417l1.524,21.052L89.78,74.756l4.258.492c1.815-1,18.342-9.924,19.419-5.593a4.244,4.244,0,0,1-.239.428l7.7-2.743a12.825,12.825,0,0,1,2.044,6.673,24.866,24.866,0,0,1-1.45,9.214s-11.824,5.4-19.6,6.828a20.71,20.71,0,0,1-2.519.322,3.87,3.87,0,0,1-1.516-.184c-.02.148-.031.233-.032.24h0A146.748,146.748,0,0,1,83,91.256q-.963.01-1.926.01C76.477,91.266,71.886,91.093,67.4,90.752ZM49.6,36.285a10.558,10.558,0,0,0-8.4-2.392,7.514,7.514,0,0,0-1.958.639,22.658,22.658,0,0,1,7.815-3.779c1.087-.322,2.153-.6,3.189-.838l-1.093-10.82q-.1-.056-.191-.119A4.335,4.335,0,0,1,47.115,15c.138-1.586,1.279-3.769,2.668-4.031a4.911,4.911,0,0,1,1.27.063c.814.1,1.628.2,1.532-.244-.154-.715-1.8-7.585-1.8-7.585a.936.936,0,0,1,.629-1.092,11.123,11.123,0,0,0,3.049-.882c.113-.032.219-.093.332-.124.932-.386,6.121-2.624,10.083.63a7.455,7.455,0,0,1,1.011.981,6.747,6.747,0,0,1,1.58,3.192L68.6,11.252a15.775,15.775,0,0,1,.211,1.647c.431,6.861-1.183,12.144-3.515,12.985a11.927,11.927,0,0,1-3.709.561,25.346,25.346,0,0,1-2.656-.3l-.406-.047.335,2.9a18.122,18.122,0,0,1,4.981.863,10.289,10.289,0,0,1,4.58,2.848L49.6,36.285h0Z" transform="translate(12.318 17.724)" fill="#f2a98a"/>
                <path id="Shadow_Skin" data-name="Shadow Skin" d="M14.219,27.53h0l9.388-6.967L25.77-.476l0,0c-.3.277-3.069,2.778-6.22,5.415-3.042,2.546-7.055,5.721-8.893,6.388L8.265,2.551a1.421,1.421,0,0,1-.626.149L3.9,2.726,2.661,15.473l-.007.077c-.029.3-.056.588-.058.9A8.524,8.524,0,0,1,.947,21.61,16.162,16.162,0,0,1-.389,23.178L14.219,27.53Z" transform="matrix(0.985, -0.174, 0.174, 0.985, 83.092, 68.003)" fill="#8c2a00" opacity="0.2"/>
                <path id="Fingers" d="M.026,10.25a.463.463,0,0,1,.267-.585C1.871,9.081,3.1,8.658,5.843,7.74S9.8,6.4,11.368,5.822a.435.435,0,0,1,.562.278.463.463,0,0,1-.267.585c-1.578.584-2.808,1.008-5.55,1.926S2.154,9.948.587,10.528a.424.424,0,0,1-.148.027A.441.441,0,0,1,.026,10.25Zm.732-6.3a.461.461,0,0,1,.3-.566c1.45-.434,2.57-.809,5.062-1.677S9.754.456,11.219.018a.437.437,0,0,1,.544.314.461.461,0,0,1-.3.566c-1.45.434-2.57.809-5.062,1.677S2.767,3.825,1.3,4.263a.424.424,0,0,1-.122.018A.443.443,0,0,1,.758,3.95Z" transform="translate(123.423 89.351)" fill="#482d1f"/>
                <path id="Hair" d="M.017,19.994c-.292-4.346,3.25-8.18,8.016-8.822a8.448,8.448,0,0,1,.741-3.732,6.927,6.927,0,0,1,1.7-2.339c1.309-1.2,2.572-1.5,4.665-2.009.942-.228,2.011-.487,3.329-.884l.248-.078c.89-.278,2.109-.66,3.512-1.224A.7.7,0,0,0,22.46.848c.036-.014.074-.028.112-.038A12.2,12.2,0,0,1,26.9,0a8.253,8.253,0,0,1,5.47,1.867.98.98,0,0,0,.22.17c.16.109.359.244.356.3a22.7,22.7,0,0,1-2.973,4.606,19.743,19.743,0,0,1-3.765,3.544,14.614,14.614,0,0,1-5.329,2.4A4.846,4.846,0,0,0,19.214,11.7l-.016-.006a3.187,3.187,0,0,0-1.083-.2,2.525,2.525,0,0,0-.488.046A3.725,3.725,0,0,0,14.972,14.9a4.26,4.26,0,0,0,1.79,3.891,4.1,4.1,0,0,0,2.431.736c.108,0,.2,0,.265-.006h.01l.458-.138a2.611,2.611,0,0,1,.352,2.289,3.327,3.327,0,0,1-.986,1.174,4.842,4.842,0,0,1-1.224.662,6.392,6.392,0,0,1-1.234.327,9.708,9.708,0,0,1-7.058,3.7q-.383.028-.761.028C4.263,27.569.306,24.3.017,19.994Zm28.622-8.233c-1.344-.035-.26-1.128.916-1.393a2.052,2.052,0,0,1,1.418.2.373.373,0,0,1-.011.666,5.257,5.257,0,0,1-2.094.53Q28.753,11.769,28.638,11.761Zm5.548-1.548c-1.352-.065-.26-1.128.916-1.393a2.042,2.042,0,0,1,1.39.213.39.39,0,0,1-.039.674,5.039,5.039,0,0,1-2.021.516C34.351,10.224,34.268,10.22,34.187,10.213Z" transform="translate(44.843 17.655)" fill="#482d1f"/>
                <path id="Eyes" d="M.577,3.7A2.622,2.622,0,0,1,0,2.059a.751.751,0,0,1,.52-.808c.226-.063.455,0,.646.388.391.786.02,2.132-.42,2.132A.266.266,0,0,1,.577,3.7ZM5.662,2.47C5.288,2.2,5.16,1.347,5.088.83a.752.752,0,0,1,.52-.808c.227-.063.455,0,.646.388.391.786.021,2.132-.42,2.132A.266.266,0,0,1,5.662,2.47Z" transform="translate(74.669 29.395)" fill="#482d1f"/>
                <path id="Mouth" d="M.8.886C.59.827.092.65.007.316.008.255-.02.164.01.1c.119-.184.5-.1,1.029-.041a8.824,8.824,0,0,0,1.7-.018,3.815,3.815,0,0,1-.39.765C2.055,1.3,1.117.974.8.886Z" transform="matrix(0.966, -0.259, 0.259, 0.966, 76.623, 36.362)" fill="#482d1f"/>
                <path id="Nose" d="M1.835,2.042l.318,3.231v.034a.708.708,0,0,1-.546.7l-.124.012c-.311.024-.534.03-1.335.038a.292.292,0,0,1-.291-.3.307.307,0,0,1,.3-.307c.786-.008,1-.013,1.3-.036L1.544,5.4c-.007,0,.018-.035.023-.08L1.248,2.094V2.05l.077-1.8a.306.306,0,0,1,.307-.3.293.293,0,0,1,.281.312Z" transform="matrix(0.966, -0.259, 0.259, 0.966, 76.042, 29.362)" fill="#482d1f"/>
                <path id="Shadow" d="M3.146,9.243Q2.077,4.96.864.337A.438.438,0,0,0,.324.016.46.46,0,0,0,.016.578Q1.228,5.2,2.3,9.474a.438.438,0,0,0,.536.328A.46.46,0,0,0,3.146,9.243Z" transform="translate(64.682 62.962)" fill="#482d1f"/>
            </g>
        </g>
    </g>
</svg>
