<svg xmlns="http://www.w3.org/2000/svg" width="812" height="805.5" viewBox="0 0 812 805.5">
  <g id="Group" transform="translate(0 -0.045)">
    <g id="Background_8" data-name="Background / 8" transform="translate(409 0.045)">
      <g id="Socials_" data-name="Socials ">
        <g id="Browser">
          <g id="Background">
            <rect id="Background-2" data-name="Background" width="402.224" height="302" rx="20" fill="#f2f6fb"/>
          </g>
        </g>
        <g id="Userpic" transform="translate(24.071 204.956)">
          <g id="Userpic-2" data-name="Userpic">
            <path id="Combined_Shape" data-name="Combined Shape" d="M36.406,73.547a35.865,35.865,0,0,1-14.171-2.89,36.266,36.266,0,0,1-11.572-7.881,36.985,36.985,0,0,1,0-52.006,36.139,36.139,0,0,1,51.486,0,36.985,36.985,0,0,1,0,52.006,36.266,36.266,0,0,1-11.572,7.881,35.865,35.865,0,0,1-14.171,2.889Zm.08-34.5a8.814,8.814,0,0,0-8.817,8.791H45.3a8.814,8.814,0,0,0-8.816-8.791Zm0-12.125a4.85,4.85,0,1,0,4.864,4.85,4.85,4.85,0,0,0-4.864-4.85Z" fill="#d8deed"/>
          </g>
        </g>
        <g id="Send_Message" data-name="Send Message">
          <path id="Combined_Shape-2" data-name="Combined Shape" d="M122.994,273.186a7.3,7.3,0,1,1,0-14.593H360.437a7.3,7.3,0,0,1,0,14.593Zm0-23.713a7.3,7.3,0,1,1,0-14.593H323.911a7.3,7.3,0,0,1,0,14.593Zm0-23.713a7.3,7.3,0,1,1,0-14.593H272.773a7.3,7.3,0,0,1,0,14.593ZM28.071,179.536a4,4,0,0,1-4-4V66.108a4,4,0,0,1,4-4H283.325a4,4,0,0,1,4,4V175.536a4,4,0,0,1-4,4ZM0,34.16V20A20,20,0,0,1,20,0H383a20,20,0,0,1,20,20V34.16Z" fill="#e1e5f0"/>
          <g id="Button" transform="translate(305.607 153.849)">
            <g id="Button-2" data-name="Button">
              <rect id="Button-3" data-name="Button" width="73.126" height="25.687" rx="12.844" fill="#a339ff"/>
            </g>
          </g>
        </g>
      </g>
      <ellipse id="Burron_Copy" data-name="Burron Copy" cx="7.377" cy="7.375" rx="7.377" ry="7.375" transform="translate(15.53 10.093)" fill="#ff5645"/>
      <ellipse id="Burron_Copy_2" data-name="Burron Copy 2" cx="7.377" cy="7.375" rx="7.377" ry="7.375" transform="translate(39.601 10.093)" fill="#ffcb3d"/>
      <ellipse id="Burron_Copy_3" data-name="Burron Copy 3" cx="7.377" cy="7.375" rx="7.377" ry="7.375" transform="translate(64.449 10.093)" fill="#3abf7c"/>
    </g>
    <g id="Chair" transform="translate(463.166 283.045)">
      <path id="Path" d="M193.2,273.6V4.4C193.2,2,151.7,0,101.8,0H91.4C41.6,0,0,2,0,4.4V273.8c0,2.4,41.5,4.4,91.4,4.4h10.4C151.6,278.3,193.2,276.2,193.2,273.6Z" transform="translate(104.272)" fill="#d8deed"/>
      <path id="Path-2" data-name="Path" d="M2.372,222.648l.4.2c2.1,1.1,4.8.5,5.8-1.4l117.1-215.1a4.133,4.133,0,0,0-1.9-5.6l-.4-.2c-2.1-1.1-4.8-.5-5.8,1.4l-29,53.2q-28.35,52.2-56.8,104.3l-31.3,57.4a4.389,4.389,0,0,0,1.9,5.8Z" transform="translate(0 298.252)" fill="#d8deed"/>
      <path id="Path-3" data-name="Path" d="M278.9,0H4.5A4.527,4.527,0,0,0,0,4.4v.5A4.461,4.461,0,0,0,4.5,9.3H279.1a4.527,4.527,0,0,0,4.5-4.4V4.4A4.574,4.574,0,0,0,278.9,0Z" transform="translate(14.272 295.3)" fill="#d8deed"/>
      <path id="Path-4" data-name="Path" d="M125.672,216.893l-31.3-57.4q-28.35-52.2-56.8-104.3l-29-53.2a4.236,4.236,0,0,0-5.8-1.4l-.4.2a4.159,4.159,0,0,0-1.9,5.6l117.1,215.1a4.236,4.236,0,0,0,5.8,1.4l.4-.2a4.389,4.389,0,0,0,1.9-5.8Z" transform="translate(203.2 298.207)" fill="#d8deed"/>
    </g>
    <g id="Animals_Cat" data-name="Animals / Cat" transform="translate(40.257 198.204)">
      <g id="Cat" transform="translate(132.035 339)">
        <path id="Base_Color" data-name="Base Color" d="M.033,111c2.628,0,21.628-51.447,88.673-56.676q2.891-.229,5.612-.295a22.042,22.042,0,0,1,2.394-5.577C93.9,41.567,91.739,25.43,91,18.709a2.632,2.632,0,0,1,.189-.828,1.8,1.8,0,0,1,2.263-.737l21.223,10.4c3.624-1.326,7.459-2.531,11.5-3.736,3.829-1.171,7.659-2.169,11.26-3.085l7.6-19.74A1.473,1.473,0,0,1,147,.133a1.258,1.258,0,0,1,.653.567c3.933,5.547,13.593,19.693,16.191,26.845,7.189,3.572,9.643,7.108,10.025,10.2.562,5.2-.654,9.383-3.553,16.258A352.341,352.341,0,0,0,156.1,96q-1.683-.363-3.36-.765A65.664,65.664,0,0,1,155,111ZM.033,111Z" transform="translate(4.122)" fill="#ffcb3d"/>
        <path id="Color" d="M6.459,80.162a6.364,6.364,0,0,1-6.332-6.5c-1.187-7.507,6.332-9.136,6.332-9.136s31.007-1.717,55.18,4.6S89.8,80.162,89.8,80.162Zm150.521-8.61v-.094a6.817,6.817,0,0,0-6.3-5.493q-4.448-.279-9.454-.279a99.656,99.656,0,0,0-12.865.836l-6.229-18.9a36.448,36.448,0,0,0,19.558,3.631,33.456,33.456,0,0,0,6.767-1.3A34.308,34.308,0,0,0,164.3,39.8c2.41-2.793,9.825-14.8,9.825-14.8s-8.157,24.765-13.07,40.127c.13-.616-.667,1.382-1.6,3.38-.811,1.746-1.722,3.493-2.2,3.493-.129,0-.228-.137-.281-.448ZM127.825,20.785a1.5,1.5,0,1,1,2.6-1.487,4.729,4.729,0,0,0,5.753,1.9,3.818,3.818,0,0,0,2.425-3.775c0-.01-.01-.02-.015-.03a4.3,4.3,0,0,1-.434-2.548,2.151,2.151,0,0,1,.868-1.51,1.869,1.869,0,0,1,2.692.661A4.51,4.51,0,0,1,142,16.951a4.6,4.6,0,0,0,5.316,1.143,4.588,4.588,0,0,0,2.228-4.821,1.5,1.5,0,1,1,2.95-.545,7.587,7.587,0,0,1-3.752,8.006l-.1.054a7.571,7.571,0,0,1-7.5-.626,7.339,7.339,0,0,1-3.811,3.8,8.174,8.174,0,0,1-2.9.536,7.552,7.552,0,0,1-6.606-3.713Zm-14.228-.4a4.256,4.256,0,0,1-.439-2.547,2.148,2.148,0,0,1,.878-1.51,1.807,1.807,0,0,1,2.635.661c1.055,1.982.088,4.812-.966,5a.775.775,0,0,1-.1.006c-.773,0-1.672-.973-2-1.605Zm45-16a4.229,4.229,0,0,1-.444-2.548,2.145,2.145,0,0,1,.887-1.51A1.834,1.834,0,0,1,161.7.988c.976,1.982.088,4.624-.976,5a.789.789,0,0,1-.1.006c-.776.006-1.685-.972-2.025-1.6Z" transform="translate(0 31)" fill="#de6903"/>
      </g>
    </g>
    <g id="Woman_sitting_1" data-name="Woman sitting / 1" transform="translate(309 89.045)">
      <g id="Woman" transform="translate(98.287 63.933)">
        <g id="Legs" transform="translate(0 296.908)">
          <path id="Base" d="M180.6,8.524A4.262,4.262,0,0,1,180.6,0H280a4.262,4.262,0,0,1,0,8.524Zm-176.34,0A4.262,4.262,0,0,1,4.261,0H161.478a4.262,4.262,0,0,1,0,8.524Z" transform="translate(0 346.635)" fill="#ff5645"/>
          <path id="Shoes" d="M160.385,59.909h0a4.218,4.218,0,0,0-2.637-.914H.53a4.323,4.323,0,0,0-.459.024A11.026,11.026,0,0,1,0,57.447c.038-.232.064-.472.091-.726A8.985,8.985,0,0,1,.33,55.274c1.247-4.563,2.751-7.541,7.12-10.2a121.809,121.809,0,0,1,13.522-7.156c7.2-3.328,12.346-5.217,16.883-6.883,6.107-2.243,10.93-4.015,17.5-8.251a90.54,90.54,0,0,0,13-10.386C72.33,8.628,85.6.086,85.736,0l69,.208,5.648,59.7ZM275.159,59H177.075l7.864-51.74h69.9L275.16,58.994Z" transform="translate(3.731 287.641)" fill="#474961"/>
          <path id="Legs-2" data-name="Legs" d="M74.591,278.5c-6.731,0-11.227-1.333-14.533-5.024a14.975,14.975,0,0,1-3.758-6.991C49.265,231.618,14.383,130.42.8,57.816c0-.179-.1-.269-.1-.448-4.336-23.394,11.949-45.445,36.135-48.4,8-.986,15.225-1.937,23.223-2.922a45.046,45.046,0,0,1,7.236-.258l119.389-2.07c70.812-.616,61.062-8.836,83.2,1.352s30.152,58,30.152,58S302.877,99.077,270.5,124c-.158,46.341-1.751,107.911-2.3,129.088-.1,2.949.289,10.93-5.492,15.962-1.638,1.475-3.276,2.082-6.36,3.383-2.409,1.042-13.2,4.165-34.786,5.9-.954.061-1.956.123-2.972.123-.421,0-.845-.01-1.268-.036-22.259-.781-27.752-2.169-36.328-4.6a14.179,14.179,0,0,1-10.407-12.145c-2.7-25.244-10.117-94.036-10.7-100.11-.771-7.72-1.446-16.482-2.023-26.458l-.307-4.67-26.667-10.5c11.136,42.631,21.941,86.791,31.6,130.688.482,2.151,1.349,6.991-1.156,11.563-4.626,8.7-16.671,8.247-45.482,11.653-19.37,2.3-32.294,4.663-41.252,4.663Z" transform="translate(7.587)" fill="#a339ff"/>
          <path id="Shadow_Legs" data-name="Shadow Legs" d="M90.06,130.493h0l-26.651-10.5c-7-26.809-14.565-54.637-22.477-82.714C35.952,19.673,19.12,6.722,0,5.78L119.062,3.715C149.142,3.454,164.9,1.8,174.313.808,178.773.339,182,0,184.782,0c5.492,0,9.356,1.328,17.483,5.067,5.051,2.324,9.779,6.819,14.053,13.361a94.37,94.37,0,0,1,9.327,19.462,163.756,163.756,0,0,1,6.773,25.182,47.01,47.01,0,0,1-.061,6A75.835,75.835,0,0,1,229.8,84.145a75.06,75.06,0,0,1-8.6,19.745A75.993,75.993,0,0,1,203,123.911c.008-2.311.012-4.7.012-7.117,0-18.433.1-33.9.289-43.548l.012-.467a169.713,169.713,0,0,0-1.566-29.965,68.473,68.473,0,0,0-5.06-18.04c-2.7-5.8-6.216-9.779-10.441-11.819a60.935,60.935,0,0,0-6.552-2.515h-.013a96.665,96.665,0,0,0-29.794-4.753c-1.211,0-2.432.024-3.63.072-11.221.432-28.177,1.084-42.206,11.971-19,14.792-18.824,38-18.6,42.507l4.612,70.26Z" transform="translate(75.207)" fill="#444" opacity="0.177"/>
        </g>
        <g id="Body" transform="translate(8.661)">
          <path id="T-shirt" d="M62.313,187.874c-3.684-6.555-31.087-72.11-39.823-93.065C14.736,97.318,8.98,99.161,8.6,99.228,7.358,99.443,3.149,85.577.408,63.652c-3.145-25.16,12.114-46.143,37.4-50.435a12.2,12.2,0,0,1,10.3,2.972,39.237,39.237,0,0,1,4.476-1.744L73.147,7.579q1.787-.326,3.56-.57c1.621-1.86,4.922-3.436,10.645-5.194,20.328-6.351,46.273,4.211,55.515,27.876,8.053,20.623,18.751,43.919,17.755,44.225A49.758,49.758,0,0,1,149.2,79.438c6.694,25.663,14.312,57.107,15.1,70.071,1.429,23.563-6.5,39.357-33.354,41.358-13.309.992-29.2,2.185-42.387,2.185C75.138,193.052,64.53,191.816,62.313,187.874Z" transform="translate(118.963 108.207)" fill="#ff5645"/>
          <path id="Combined_Shape-3" data-name="Combined Shape" d="M8.568,86.205C7.293,86.2,3.124,72.349.409,50.626A48.854,48.854,0,0,1,1.37,32.735,42.338,42.338,0,0,1,20.857,6.345,48.551,48.551,0,0,1,37.812.192,12.716,12.716,0,0,1,39.983,0a12.5,12.5,0,0,1,8.17,3.2C24.667,13.66,11.165,48.062,19.824,75.379c0,.007,1.031,2.411,2.733,6.383C13.635,84.65,8.938,86.144,8.6,86.2Z" transform="translate(118.962 121.232)" fill="#444" opacity="0.177"/>
          <path id="Finger" d="M.137,4.262s-1.831,7.2,7.9,5.209S20.565,6.535,20.565,6.535L18.06,0Z" transform="translate(126.396 122.71)" fill="#482d1f"/>
          <path id="Skin" d="M180.132,565.918,181.5,545c7.541,2.1,13.648,3.429,34.814,4.172.4.024.812.036,1.268.036.973,0,1.922-.055,2.972-.122a223.45,223.45,0,0,0,23.788-3.055l5.515,19.618-6.4.274Zm-99.744-7.327,4.575-10.156c3.709-.425,7.933-1,12.4-1.6,5.134-.693,10.951-1.48,17.476-2.255,5.023-.594,9.537-1.07,13.52-1.491,7.753-.819,13.877-1.466,18.632-2.419l2.758,17.922H80.388ZM74.557,276.426l-.341-.025-.472.007h-.032a1.967,1.967,0,0,1-.576-.086L26.591,272.9A25.172,25.172,0,0,1,8.41,263.112l-6.087-7.984A11.109,11.109,0,0,1,.89,243.972a11.43,11.43,0,0,1,9.028-6.906l14.912-2.125a97.975,97.975,0,0,1,28,.05l28.827,4.214c22.433-7.051,50.673-15.773,57.8-17.3l-8.965-41.6,10.6-4.16c1.642,3.742,5,11.388,9.389,21.356-1.53-14.624-2.282-29.953-3.016-44.932-.869-17.694-1.765-35.989-3.93-52.836l-10.021.215c-3.495,1.385-8.528,3.037-12.657,3.037-4.229,0-6.65-1.723-7.194-5.121.131-.053,16.784-6.812,28.234-11.649l.868-.758a6.015,6.015,0,0,1,2.408-1.327,1.251,1.251,0,0,1,.578-.1l.641-.092a22.507,22.507,0,0,1-3.378.053c-8.059-.353-17.938-14.62-22.69-35.411a45.372,45.372,0,0,1-.838-5.062L118.27,26.609A20.817,20.817,0,0,1,120.3,15.7a8.1,8.1,0,0,1,.491-.993,32.2,32.2,0,0,1,1.78-2.814A26.647,26.647,0,0,1,130.8,4.434,45.171,45.171,0,0,1,151.2.018c.68.036,2.817.138,5.827.259A41.5,41.5,0,0,0,165.389.7a2.931,2.931,0,0,1,2.947,2.694l1.191,24.236a5.055,5.055,0,0,0,.141.759s14.555-5.92,20.84,6.754.594,9.931-2.2,13.307A14.7,14.7,0,0,1,182.1,52.6a2.082,2.082,0,0,0-.92.5l7.548.072,1.334,5.208.491,6.613,4.959,24.2A136.226,136.226,0,0,1,181.5,95.744l17.923,83.671,4.261-22.726c8.186,1.551,36.33,6.61,54.819,6.61h.235c-.787,3.012-1.835,8.48-3.162,15.4-2.055,10.727-4.612,24.075-7.823,37.009-3.81,15.342-7.546,26.085-11.425,32.841a119.814,119.814,0,0,1-8.648,13.322,42.691,42.691,0,0,1-8.094,8.294,25.586,25.586,0,0,1-8.6,4.253,37.367,37.367,0,0,1-10.172,1.2c-2.727,0-5.836-.177-9.781-.559a34.835,34.835,0,0,1-6.374-1.192,28.01,28.01,0,0,0,2.979.79L74.568,276.4l-.01.03h0Zm88.8-197.5c-8.02,3.352-7.556,3.121-8.115,3.36-1.2.369-2.371.662-3.481.9l8.636-1.224,4.251-.614-.567-2.72Z" transform="translate(0.056 26.165)" fill="#db9e75"/>
          <path id="Shadow" d="M.79,7.176h0C.657,7.144.579,7.122.571,7.119L0,4.382,10.342,0a.067.067,0,0,1-.008.022C9.981.8,8.137,4.768,6.447,6.384l-3.633.5Z" transform="translate(164.133 100.403)" fill="#482d1f"/>
          <path id="Eyes" d="M.016,5.635C.187,4.29.809,3.666,1.576,3.6A2.336,2.336,0,0,1,4.248,5.367c.343,1.682.971,4.385.312,5.677a.9.9,0,0,1-.827.556C2.236,11.6-.221,8.291.016,5.635ZM20.5,2.068C20.666.722,21.288.1,22.055.032A2.335,2.335,0,0,1,24.727,1.8c.343,1.682.971,4.385.312,5.677a.9.9,0,0,1-.827.556C22.715,8.032,20.258,4.724,20.5,2.068Z" transform="translate(122.234 67.345)" fill="#482d1f"/>
          <path id="Nose" d="M.853.861,0,10.332A2.2,2.2,0,0,0,2.023,12.6a26.035,26.035,0,0,0,2.809.025c.767-.013,1.292-.019,1.912-.018a.947.947,0,0,0,0-1.894c-.635,0-1.171,0-1.949.018a25.788,25.788,0,0,1-2.7-.022.405.405,0,0,1-.171-.287l.849-9.386A.964.964,0,1,0,.853.861Z" transform="translate(130.283 71.722) rotate(-4.992)" fill="#482d1f"/>
          <path id="Mouth" d="M6.554,2.59c.674-.188,2.311-.849,2.5-1.8,0-.189.1-.473,0-.568C8.67-.248,7.418.129,5.684.41A41.839,41.839,0,0,1,0,.875,13.5,13.5,0,0,0,1.352,2.961C2.414,4.1,5.495,2.967,6.554,2.59Z" transform="translate(133.271 87.031) rotate(-4.992)" fill="#482d1f"/>
          <path id="Glasses" d="M.053,19.564A13.519,13.519,0,0,1,12.492,4.994a13.669,13.669,0,0,1,14.452,10.07l1.358-.21,1.586-.245A13.518,13.518,0,0,1,42.327.052,13.745,13.745,0,0,1,55.474,6.9l2.613-.873L61.28,4.958a1.424,1.424,0,1,1,.931,2.69L59.017,8.716l-2.408.8a13.326,13.326,0,0,1,.542,2.757A13.518,13.518,0,0,1,44.712,26.847,13.684,13.684,0,0,1,30.438,17.4l-1.687.261-1.394.216A13.531,13.531,0,0,1,14.877,31.79q-.608.052-1.208.052A13.594,13.594,0,0,1,.053,19.564Z" transform="translate(105.219 56.112)" fill="#482d1f"/>
          <path id="Shadow_Arm" data-name="Shadow Arm" d="M74.558,100.275h0l-.342-.026-.472.008h-.031a1.938,1.938,0,0,1-.576-.087L26.591,96.75A25.17,25.17,0,0,1,8.409,86.961L2.323,78.977A11.109,11.109,0,0,1,.89,67.821a11.431,11.431,0,0,1,9.028-6.906L24.831,58.79a97.968,97.968,0,0,1,28,.05l28.826,4.213c22.434-7.05,50.673-15.773,57.8-17.295l-8.965-41.6L141.09,0c1.7,3.886,5.255,11.977,9.9,22.508.558,4.342,1.2,8.547,1.893,12.5,2.057,10.757,3.982,19.11,6.059,26.287a99.385,99.385,0,0,0,7.639,19.668A38.241,38.241,0,0,0,176.91,93.656a26.347,26.347,0,0,0,10.73,4.853L74.568,100.244l-.01.03Z" transform="translate(0 202.316)" fill="#8c2a00" opacity="0.2"/>
          <path id="Shadow-2" data-name="Shadow" d="M9.6,51.731.06,20.1a1.417,1.417,0,0,1,.975-1.765,1.45,1.45,0,0,1,1.8.958l9.54,31.633A1.417,1.417,0,0,1,11.4,52.69a1.471,1.471,0,0,1-.411.059A1.444,1.444,0,0,1,9.6,51.731ZM60.434,4.645A1.423,1.423,0,1,1,60.455,1.8,34.7,34.7,0,0,0,71.787.076,1.451,1.451,0,0,1,73.62.964a1.415,1.415,0,0,1-.9,1.8,37.543,37.543,0,0,1-11.971,1.88Z" transform="translate(198.417 185.98)" fill="#482d1f"/>
          <path id="Hair" d="M72.257,89.681h0c-.065-.039-6.557-3.922-9.955-8.961-.5-.751-1.008-1.521-1.527-2.3l.445-.122c1.813-.491,5.586-1.512,8.015-4.448a12.762,12.762,0,0,0,2.113-13.206c-1.76-4.345-6.288-7.621-10.533-7.621a8.306,8.306,0,0,0-.878.046,11.073,11.073,0,0,0-4.857,1.938,15.182,15.182,0,0,0-4.433,5.61l-.765,2.2c-.377-.486-.745-.948-1.1-1.374-3.5-3.222-6.339-6.009-9.08-8.7-3-2.95-6.1-6-10.023-9.555-.367.124-.926.316-1.634.56-6.052,2.073-24.471,8.4-27.67,8.4A.994.994,0,0,1,0,52.1a24.892,24.892,0,0,1,1.583-9.43,12.911,12.911,0,0,1,2.344-3.8c.111-.128.2-.229.257-.309a30.888,30.888,0,0,1,8.754-8.17A45.427,45.427,0,0,1,32.273,25.96c.367,0,.727.006,1.07.018.729.039,2.882.141,5.826.259.858.02,1.745.041,2.809.044.82-.009,1.662-.013,2.576-.013h3.035c4.41-.093,7.941-.336,11.057-.549,2.689-.184,5.011-.344,7.118-.344A23.054,23.054,0,0,1,75.432,27.2c.5.225,1.1.507,1.815.893a36.531,36.531,0,0,1,1.689-3.658C83.813,15.152,89.493,8.383,95.817,4.323A25.443,25.443,0,0,1,109.581,0a14.368,14.368,0,0,1,5.132.754,1.291,1.291,0,0,0,.281.034,23.155,23.155,0,0,1,8.659,2.425,18.524,18.524,0,0,1,5.674,4.467,19.975,19.975,0,0,1,4.057,8.092,38.447,38.447,0,0,1,1.132,7.6,26.252,26.252,0,0,1-2.349,12.962,25.369,25.369,0,0,1-11.373,10.811,40.845,40.845,0,0,1-18.55,4.191A51.659,51.659,0,0,1,90,49.829a47.251,47.251,0,0,1-.07,7.11q-.012.16-.022.3a34.541,34.541,0,0,1-3.275,11.6,51.444,51.444,0,0,1-4.446,7.385c-.473.681-.881,1.269-1.171,1.744a98.5,98.5,0,0,1-8.757,11.71Z" transform="translate(118.095)" fill="#482d1f"/>
        </g>
      </g>
    </g>
    <g id="Interior_Devices_Mouse" data-name="Interior / Devices / Mouse" transform="translate(419 429.045)">
      <path id="Mouse" d="M1.663,11.977c10.5-11,32.4-20.1,69.8-.4,5.7,2.9,4,12.7-2.2,12.9l-63.9,1.8C.563,26.477-1.837,15.677,1.663,11.977Z" transform="matrix(0.999, 0.035, -0.035, 0.999, 14.481, 56.7)" fill="#474961"/>
    </g>
    <g id="Cat-2" data-name="Cat" transform="translate(164.621 632.204)">
      <path id="Combined_Shape-4" data-name="Combined Shape" d="M181.577,33.976l.01.024h-168S-2.433,24.322.318,13.786,13.586,0,13.586,0h168.1s10.519,3.251,13.269,13.786S181.686,34,181.686,34Z" fill="#3abf7c"/>
    </g>
    <g id="UI_Code_1" data-name="UI / Code / 1" transform="translate(0 107.045)">
      <g id="Code">
        <path id="Path-5" data-name="Path" d="M327.4,222H21.8C9.8,222,0,213.116,0,202.238V19.762C0,8.884,9.8,0,21.8,0H327.4c12,0,21.8,8.884,21.8,19.762V202.148C349.2,213.116,339.4,222,327.4,222Z" transform="translate(93.9 52.2)" fill="#f2f6fb"/>
        <path id="Top_bar" data-name="Top bar" d="M20,0H329a20,20,0,0,1,20,20V43H0V20A20,20,0,0,1,20,0Z" transform="translate(94 31)" fill="#e1e5f0"/>
        <g id="Text" transform="translate(142 123)">
          <path id="Combined_Shape-5" data-name="Combined Shape" d="M123.75,107.5a5.75,5.75,0,0,1,0-11.5h38.5a5.75,5.75,0,0,1,0,11.5Zm-59,0a5.75,5.75,0,0,1,0-11.5h38.5a5.75,5.75,0,0,1,0,11.5Zm-59,0a5.75,5.75,0,1,1,0-11.5h38.5a5.75,5.75,0,0,1,0,11.5Zm162-32a5.75,5.75,0,0,1,0-11.5h80.5a5.75,5.75,0,0,1,0,11.5Zm-70,0a5.75,5.75,0,0,1,0-11.5h14.5a5.75,5.75,0,1,1,0,11.5Zm85-32a5.75,5.75,0,0,1,0-11.5h65.5a5.75,5.75,0,0,1,0,11.5Zm-59,0a5.75,5.75,0,0,1,0-11.5h38.5a5.75,5.75,0,0,1,0,11.5Zm-59,0a5.75,5.75,0,0,1,0-11.5h38.5a5.75,5.75,0,0,1,0,11.5Zm-59,0a5.75,5.75,0,1,1,0-11.5h38.5a5.75,5.75,0,0,1,0,11.5Zm162-32a5.75,5.75,0,1,1,0-11.5h80.5a5.75,5.75,0,0,1,0,11.5Zm-35,0a5.75,5.75,0,1,1,0-11.5h14.5a5.75,5.75,0,0,1,0,11.5Zm-127,0A5.75,5.75,0,1,1,5.75,0h71.5a5.75,5.75,0,0,1,0,11.5Z" fill="#e1e5f0"/>
          <path id="Code-2" data-name="Code" d="M132.75,11.5a5.75,5.75,0,1,1,0-11.5h14.5a5.75,5.75,0,0,1,0,11.5Zm-127,0A5.75,5.75,0,1,1,5.75,0h71.5a5.75,5.75,0,0,1,0,11.5Z" transform="translate(0 64)" fill="#a339ff"/>
          <path id="Code-3" data-name="Code" d="M90.75,107.5a5.75,5.75,0,0,1,0-11.5h65.5a5.75,5.75,0,0,1,0,11.5Zm-85-96A5.75,5.75,0,1,1,5.75,0h14.5a5.75,5.75,0,1,1,0,11.5Z" transform="translate(92)" fill="#ff5645"/>
        </g>
        <g id="Code-4" data-name="Code">
          <rect id="Placeholder" width="165" height="103" rx="20" fill="#3abf7c"/>
          <path id="Path-6" data-name="Path" d="M33.339,0,0,26.825,35,46" transform="translate(20 28)" fill="none" stroke="#fff" stroke-linecap="round" stroke-linejoin="round" stroke-miterlimit="10" stroke-width="10"/>
          <path id="Path-7" data-name="Path" d="M1.538,46,35,23.05,0,0" transform="translate(107 28)" fill="none" stroke="#fff" stroke-linecap="round" stroke-linejoin="round" stroke-miterlimit="10" stroke-width="10"/>
          <path id="Path_Copy_2" data-name="Path Copy 2" d="M0,67.011,15.232,0" transform="translate(73 18.374)" fill="none" stroke="#fff" stroke-linecap="round" stroke-linejoin="round" stroke-miterlimit="10" stroke-width="10"/>
        </g>
      </g>
    </g>
    <g id="Table_3" data-name="Table / 3" transform="translate(92.5 444.045)">
      <path id="Combined_Shape-6" data-name="Combined Shape" d="M0,354.55V7.45A6.952,6.952,0,0,1,5.563.639,6.969,6.969,0,0,1,8.49,0H599.17a7,7,0,1,1,0,14H13.9V220.02q.27-.021.546-.021h197.49a7,7,0,0,1,0,14H14.447q-.276,0-.546-.021V354.55a6.95,6.95,0,1,1-13.9,0Z" fill="#d8deed"/>
    </g>
    <g id="Interior_Devices_Imac" data-name="Interior / Devices / Imac" transform="translate(162.263 263.924)">
      <g id="IMac" transform="translate(53 77)">
        <path id="IMac-2" data-name="IMac" d="M55.9,188.2a7.063,7.063,0,0,1-7.1-7.1,6.941,6.941,0,0,1,7.1-7.1H76.273l9.617-38.8H13.7C6.2,135.2,0,129.5,0,122.6V12.7C-.1,5.7,6,0,13.6,0H233.3C240.8,0,247,5.7,247,12.6v110c0,6.9-6.2,12.6-13.7,12.6H145.325l-3.97,38.8H167.4a7.1,7.1,0,1,1,0,14.2Z" fill="#474961"/>
        <path id="Shadow-3" data-name="Shadow" d="M7.17,67.188H0L6.874,0l.3,67.187Z" transform="translate(141.432 106.915)" fill="#fff"/>
      </g>
    </g>
  </g>
</svg>
