<svg xmlns="http://www.w3.org/2000/svg" width="290.041" height="280.187" viewBox="0 0 290.041 280.187">
    <g id="Group_2" data-name="Group 2" transform="translate(-47.959 -44.313)">
        <g id="Woman" transform="translate(47.959 59.16)">
            <path id="Base" d="M83.063,2.641a1.32,1.32,0,1,1,0-2.641h50.566a1.32,1.32,0,0,1,0,2.641Zm-81.725,0A1.245,1.245,0,0,1,0,1.524V1.117A1.264,1.264,0,0,1,1.337,0H31.805a1.244,1.244,0,0,1,1.337,1.117v.407a1.264,1.264,0,0,1-1.337,1.117Z" transform="translate(0 262.699)" fill="#ff5645"/>
            <path id="Shoes" d="M30.594,18.854h0a1.559,1.559,0,0,0-.488-.077H0C2.077,14.312,8.02.158,8.079.015H31.65L30.594,18.853ZM81.132,18.8h0L83.52,0h22.352l.015.011c.552.389,3.4,2.4,5.305,3.862l.963.787a29.721,29.721,0,0,0,6.587,4.082l7.015,3.171a40.967,40.967,0,0,1,4.161,2.259,6.927,6.927,0,0,1,2.17,3.169,2.819,2.819,0,0,1,.065.448c.007.079.014.154.024.227a2.828,2.828,0,0,1-.108.77,1.345,1.345,0,0,0-.142-.008H81.363a1.333,1.333,0,0,0-.229.02Z" transform="translate(1.7 243.922)" fill="#474961"/>
            <path id="Legs" d="M97.306,158.628l-16.658-.007a8.869,8.869,0,0,1-8.9-8.271L67.758,85.062,59.376,69.643,36.324,151.312a8.9,8.9,0,0,1-8.59,6.44H8.922a8.828,8.828,0,0,1-8.63-11.016L25.082,52.581s5.434-29.344,9.137-38.08C38.116,5.308,45.8.721,49.125.488,69.277-.922,72.72,1.1,73.307,1.844c4.178.99,15.162,18.317,24.5,61.2l8.377,85.94a8.847,8.847,0,0,1-8.876,9.644Z" transform="translate(5.692 80.966)" fill="#a339ff"/>
            <path id="Object" d="M15.2,51.129l-1.218-17.41a5.921,5.921,0,0,1,1.1-3.88l-1.515-.513L5.387,27.982a6.4,6.4,0,0,1-5.351-5.61v-.007A6.445,6.445,0,0,1,4.054,15.72l8.255-3.349L30.294.356a2.084,2.084,0,0,1,3.243,1.567L35.653,33.8A2.075,2.075,0,0,1,32.9,35.878L25.888,33.5l1.175,16.8a5.946,5.946,0,0,1-5.516,6.346c-.141.01-.281.015-.42.015A5.945,5.945,0,0,1,15.2,51.129Z" transform="translate(92.688 3.314)" fill="#474961"/>
            <rect id="Shadow_Object" data-name="Shadow Object" width="11.89" height="29.343" rx="5.945" transform="matrix(0.998, -0.07, 0.07, 0.998, 106.375, 31.147)" fill="#444" opacity="0.177"/>
            <rect id="Object-2" data-name="Object" width="4.756" height="38.439" rx="2.378" transform="matrix(0.998, -0.07, 0.07, 0.998, 122.548, 2.008)" fill="#474bff"/>
            <path id="T-shirt" d="M28.727,50.848C18.376,50.73,15.9,47.5,14.23,45.274a9.16,9.16,0,0,1-1.474-5.223c0-.322-.028-.616-.056-.939l-.794-10.074a9.662,9.662,0,0,1-2.1,1.365c-3.667,1.6-4.932-6.373-4.932-6.373-2.687-3.419-10.63-8.4,2.335-18.137,4.859-3.648,9.375-3.758,12.821-2.226a22.084,22.084,0,0,1,7.5-1.562q0-.1,0-.195A2.053,2.053,0,0,1,29.727.005l6.281.439a2.055,2.055,0,0,1,1.6,3.131,16.815,16.815,0,0,1,9.7,10.6,12.419,12.419,0,0,1,.362,4.753L45.839,39.552c-.028.323-.056.617-.056.939a8.287,8.287,0,0,1-1.53,4.958c-1.695,2.248-4.3,5.4-14.943,5.4C29.119,50.851,28.923,50.85,28.727,50.848Z" transform="translate(37.366 31.835)" fill="#ff5645"/>
            <path id="Skin" d="M75.978,235.076l19.982-.229,1.938,4.811-22.567,1.429ZM0,239.42l1.976-5.663,22.055.443-.46,5.22Zm78.422-148.7a53.768,53.768,0,0,0-5.359-9.112c-1.495-1.944-2.817-3.092-3.824-3.317a.78.78,0,0,0-.06-.085c1.469-1.067,3.152-2.412,5-4,1.45-1.242,3.028-2.654,4.691-4.2,1.486,2.548,2.893,5.128,4.182,7.669a122.651,122.651,0,0,1,7.255,17.26,86.689,86.689,0,0,1,2.57,9.617,64.149,64.149,0,0,1,1.256,9.819c.342,7.517-.606,12.429-2.816,14.6h0C86.429,109.264,81.607,97.29,78.422,90.717ZM62.67,81.387c-3.252,0-7.644-2.926-13.055-8.693a140.537,140.537,0,0,1-12.03-15.23c2.005-1.037,4.631-3.817,7.41-6.761a80.79,80.79,0,0,1,7.428-7.234c.069-.057.139-.116.2-.176L64.153,57.875,94.319,36.492l.062.14a2.483,2.483,0,0,1,.91-.354L107.648,34.1a2.5,2.5,0,0,1,2.45,3.929,2.5,2.5,0,0,1,.093,4.035,2.5,2.5,0,0,1-.19,4.874L99.713,48.752c-.319.351-6.611,7.286-13.908,14.556-4.4,4.38-8.313,8.048-11.641,10.9-4.161,3.564-7.408,5.858-9.653,6.817a4.662,4.662,0,0,1-1.84.363ZM56.187,27.421l.175-5.368-.175-2.047.15-1.658,2.415.25.121-.274a.089.089,0,0,1-.033-.057.722.722,0,0,0-.63-.486,4.56,4.56,0,0,1-2.1-.973,4.115,4.115,0,0,1-1.324-3.967c.341-1.494.453-3.856,1.878-3.924a18.656,18.656,0,0,1,2.171,0c.093.052,2.054,1.327,1.975.625s-.828-7.472-.828-7.472a.9.9,0,0,1,.767-.965A12.745,12.745,0,0,0,63.277.581C64.188.4,64.834.266,65.039.223A13.518,13.518,0,0,1,71.474.6a8.278,8.278,0,0,1,2.875,1.889,10.1,10.1,0,0,1,.681.777,2.634,2.634,0,0,1,.2.281,6.484,6.484,0,0,1,1.154,3.244l.46,5.233a14.174,14.174,0,0,1-.006,1.589C76.407,20.2,74.1,25.038,71.66,25.53a11.465,11.465,0,0,1-3.81.057c-.182-.046-.03,0-2.638-.642l-.131-.031L64.9,28.145S57.06,27.911,56.187,27.421Z" transform="translate(9.779 4.518)" fill="#f2a98a"/>
            <path id="Shadow_Skin" data-name="Shadow Skin" d="M21.373,156.722a8.947,8.947,0,0,1-6.11-2.392,8.722,8.722,0,0,1-2.79-5.88L8.485,83.238,0,67.628,14.023.2a.388.388,0,0,0-.079-.2h.015a4.269,4.269,0,0,1,1.854,1.09,17.594,17.594,0,0,1,2.4,2.745,44.651,44.651,0,0,1,2.852,4.509c1.054,1.879,2.13,4.027,3.2,6.384a168.482,168.482,0,0,1,7.042,18.834C33.9,41.8,36.333,51.1,38.537,61.219L47,148.019a7.653,7.653,0,0,1-.385,3.272,7.754,7.754,0,0,1-1.633,2.726,7.926,7.926,0,0,1-5.855,2.558l-17.674.148Z" transform="translate(64.987 82.792)" fill="#444" opacity="0.177"/>
            <path id="Combined_Shape_Copy" data-name="Combined Shape Copy" d="M22.14,58.967c-4.889-19.715-9.711-31.688-12.9-38.261a53.752,53.752,0,0,0-5.36-9.112C2.39,9.651,1.067,8.5.06,8.277A.848.848,0,0,0,0,8.193c1.469-1.068,3.152-2.412,5-4C6.452,2.955,8.03,1.543,9.693,0c1.486,2.548,2.893,5.128,4.182,7.669a122.61,122.61,0,0,1,7.255,17.26,86.581,86.581,0,0,1,2.57,9.617,64.159,64.159,0,0,1,1.256,9.819c.342,7.516-.605,12.429-2.816,14.6h0Z" transform="translate(78.958 74.529)" fill="#8c2a00" opacity="0.2"/>
            <path id="Shadow" d="M2.809,3.978,0,0,3.255,1.157Z" transform="matrix(0.998, -0.07, 0.07, 0.998, 71.63, 28.528)" fill="#482d1f"/>
            <path id="Hair" d="M17.453,29.066l2.5-3.24a25.785,25.785,0,0,1-3.265-2.991c-.112-.131-.264-.292-.441-.477a12.174,12.174,0,0,1-3.286-5.441l-.024-.1a15.5,15.5,0,0,1-.337-1.853,8.486,8.486,0,0,1-4.013,1.005A8.81,8.81,0,0,1,6.91,15.8,8.145,8.145,0,0,1,.252,6.432a7.719,7.719,0,0,1,2.83-4.59A8.433,8.433,0,0,1,8.264.075,8.81,8.81,0,0,1,9.936.237a8.569,8.569,0,0,1,4.383,2.288,7.992,7.992,0,0,1,2.264,4.125A11.449,11.449,0,0,1,20.9,5.783c.968-.081,2.064-.173,3.426-.356l.419-.067c.347-.056.774-.124,1.29-.2.331-.052.608-.1.854-.147.863-.172,1.54-.31,1.762-.357a12.038,12.038,0,0,1,2.4-.223,13.266,13.266,0,0,1,4.032.6,8.256,8.256,0,0,1,2.875,1.889c.233.229,1.175,1.241,1.4,1.511.3.994-.829,1.354-1.433,1.547a4.376,4.376,0,0,1-1.3.179,13.623,13.623,0,0,1-3.885-.809,11.434,11.434,0,0,0-1.281-.362c-1.95,2.437-3.86,4.826-5.773,7.251-.083.142-.173.3-.266.472l-.341-.636a4.725,4.725,0,0,0-1.626-1.506,3.379,3.379,0,0,0-1.486-.364l-.089,0a3.659,3.659,0,0,0-3.105,2.861,3.979,3.979,0,0,0,1.292,3.94,4.922,4.922,0,0,0,2.646,1.042c.057.007.1.014.142.02h.007a5.561,5.561,0,0,1,.17,3.91,7.428,7.428,0,0,1-2.959,3.255ZM33.1,16.04c-1.371-.189-.167-1.1,1.043-1.25a2.01,2.01,0,0,1,1.389.335.359.359,0,0,1-.067.658,5.713,5.713,0,0,1-1.738.311A3.567,3.567,0,0,1,33.1,16.04Zm5.767-.576c-1.356-.311-.089-1.111,1.129-1.175a1.984,1.984,0,0,1,1.332.43.353.353,0,0,1-.145.625,6.289,6.289,0,0,1-1.5.208A3.521,3.521,0,0,1,38.872,15.464Z" transform="translate(46.098 0)" fill="#482d1f"/>
            <path id="Face" d="M2.675,7.707c-.211-.048-.723-.168-.83-.486,0-.059-.037-.145-.011-.205.108-.211.47-.112,1.006-.111a13.355,13.355,0,0,0,1.719-.148,3.79,3.79,0,0,1-.316.78.753.753,0,0,1-.7.294A4.2,4.2,0,0,1,2.675,7.707Zm-.492-1.99A.29.29,0,0,1,2.249,5.5a.3.3,0,0,1,.2-.105l.317-.029.27-.024c.358-.033.532-.054.712-.087l.089-.017A.084.084,0,0,0,3.881,5.2a.02.02,0,0,0,0-.01L3.243,2.079l-.005-.039L3.116.314A.3.3,0,0,1,3.392,0h0a.3.3,0,0,1,.312.273l.12,1.708,0-.019L3.83,2V1.981l.637,3.092a.589.589,0,0,1-.1.467.674.674,0,0,1-.405.274l-.106.021c-.2.037-.389.059-.766.093l-.054,0h0l-.216.019-.314.029H2.477A.3.3,0,0,1,2.182,5.717ZM.328,3.7A2.828,2.828,0,0,1,0,2.049a.7.7,0,0,1,.624-.7c.237-.021.455.078.577.451.3.792-.235,1.99-.682,1.99A.269.269,0,0,1,.328,3.7Zm5.3-.487A2.828,2.828,0,0,1,5.3,1.561a.7.7,0,0,1,.624-.7c.237-.021.455.078.577.451C6.8,2.1,6.267,3.3,5.82,3.3A.269.269,0,0,1,5.626,3.212Z" transform="translate(79.943 16.165)" fill="#482d1f"/>
            <path id="Path_26" data-name="Path 26" d="M.5.5" transform="translate(59.352 34.347)" fill="none" stroke="#979797" stroke-miterlimit="10" stroke-width="1"/>
            <path id="Shadow-2" data-name="Shadow" d="M1.058,11.124A25.724,25.724,0,0,0,1.023.362.449.449,0,0,0,.5.018a.437.437,0,0,0-.344.52,24.853,24.853,0,0,1,.034,10.4.446.446,0,0,0,.872.185Z" transform="matrix(0.966, -0.259, 0.259, 0.966, 58.875, 37.594)" fill="#482d1f"/>
        </g>
        <g id="UI_Charts_Chart_3_3" data-name="UI / Charts / Chart 3 / 3" transform="translate(211 44.313)">
            <g id="Chart">
                <g id="Browser">
                    <g id="Background">
                        <rect id="Background-2" data-name="Background" width="127" height="120.387" rx="20" fill="#f2f6fb"/>
                    </g>
                </g>
                <g id="Graphic" transform="translate(16.783 36.518)">
                    <path id="Rectangle" d="M7.014,0h0a7.014,7.014,0,0,1,7.014,7.014V55.706a0,0,0,0,1,0,0H0a0,0,0,0,1,0,0V7.014A7.014,7.014,0,0,1,7.014,0Z" transform="translate(79.657 28.162)" fill="#d8deed"/>
                    <path id="Rectangle-2" data-name="Rectangle" d="M7.139,0h0a7.139,7.139,0,0,1,7.139,7.139V42.4a0,0,0,0,1,0,0H0a0,0,0,0,1,0,0V7.139A7.139,7.139,0,0,1,7.139,0Z" transform="translate(63.625 41.47)" fill="#d8deed"/>
                    <path id="Rectangle-3" data-name="Rectangle" d="M7.014,0h0a7.014,7.014,0,0,1,7.014,7.014V83.868a0,0,0,0,1,0,0H0a0,0,0,0,1,0,0V7.014A7.014,7.014,0,0,1,7.014,0Z" transform="translate(47.844)" fill="#e1e5f0"/>
                    <path id="Rectangle-4" data-name="Rectangle" d="M7.014,0h0a7.014,7.014,0,0,1,7.014,7.014V73.037a0,0,0,0,1,0,0H0a0,0,0,0,1,0,0V7.014A7.014,7.014,0,0,1,7.014,0Z" transform="translate(31.813 10.832)" fill="#d8deed"/>
                    <path id="Rectangle-5" data-name="Rectangle" d="M7.014,0h0a7.014,7.014,0,0,1,7.014,7.014V47.659a0,0,0,0,1,0,0H0a0,0,0,0,1,0,0V7.014A7.014,7.014,0,0,1,7.014,0Z" transform="translate(16.032 36.209)" fill="#d8deed"/>
                    <path id="Rectangle-6" data-name="Rectangle" d="M7.014,0h0a7.014,7.014,0,0,1,7.014,7.014V60.348a0,0,0,0,1,0,0H0a0,0,0,0,1,0,0V7.014A7.014,7.014,0,0,1,7.014,0Z" transform="translate(0 23.52)" fill="#d8deed"/>
                </g>
            </g>
        </g>
    </g>
</svg>