<svg xmlns="http://www.w3.org/2000/svg" width="672.656" height="803.245" viewBox="0 0 672.656 803.245">
  <g id="Group_2" data-name="Group 2" transform="translate(-1090 -149.862)">
    <g id="Group" transform="translate(1090 197)">
      <g id="Chair_2" data-name="Chair /  2" transform="translate(342.656 236)">
        <g id="Chair_" data-name="Chair " transform="translate(0.228 4.8)">
          <path id="Combined_Shape" data-name="Combined Shape" d="M2.772.592l-.4.2a4.389,4.389,0,0,0-1.9,5.8l31.3,57.4q28.35,52.2,56.8,104.3l26.6,48.8h-79.1a4.526,4.526,0,0,0-4.5,4.4v.5a4.574,4.574,0,0,0,4.7,4.4h274.4a4.526,4.526,0,0,0,4.5-4.4v-.5a4.461,4.461,0,0,0-4.5-4.4h-96.5l26.6-48.8q28.35-52.2,56.8-104.3l31.3-57.4a4.389,4.389,0,0,0-1.9-5.8l-.4-.2c-2.1-1.1-4.8-.5-5.8,1.4l-117.1,215.1h-78L8.572,1.993A3.978,3.978,0,0,0,5.009,0,4.505,4.505,0,0,0,2.772.592ZM210.057,241.108l-163.2.172a15,15,0,0,0-14.984,15V500.092a15,15,0,0,0,15,15h163.2a15,15,0,0,0,15-15V256.109a15,15,0,0,0-15-15Z" transform="translate(329.344 515.093) rotate(180)" fill="#d8deed"/>
        </g>
      </g>
      <g id="Man_sitting_6" data-name="Man sitting 6" transform="translate(95)">
        <g id="Man" transform="translate(1 86.619)">
          <g id="Legs" transform="translate(0 304.147)">
            <path id="Base" d="M279.6,84.108a4.6,4.6,0,1,1,0-9.2h54.073L433,.907a4.6,4.6,0,0,1,6.4.9,4.6,4.6,0,0,1-.9,6.4l-100.4,74.8c-.095.071-.192.138-.29.2a4.486,4.486,0,0,1-2.71.9ZM4.5,84A4.545,4.545,0,0,1,0,79.5,4.482,4.482,0,0,1,4.5,75H163.4a4.5,4.5,0,0,1,0,9Z" transform="translate(0 281.235)" fill="#ffcb3d"/>
            <path id="Shoes" d="M162.582,126.432h0a4.494,4.494,0,0,0-1.936-.431H1.744a4.554,4.554,0,0,0-1.326.2,5.208,5.208,0,0,1-.374-1.13v-.1c0-.167-.011-.336-.022-.5a3.8,3.8,0,0,1,.022-1c.032-.191.054-.373.075-.548a5.46,5.46,0,0,1,.226-1.152c1.337-4.629,5.022-8.5,7.1-10.4a3.246,3.246,0,0,1,.623-.484c.056-.036.114-.073.177-.115a118.627,118.627,0,0,1,13.6-7.3c3.646-1.664,8.98-3.989,14.628-6.45,8.549-3.726,17.388-7.578,21.071-9.449a108.644,108.644,0,0,0,30.2-23c.6-.3,15.164-17.394,15.311-17.566l.987.344c17.686,6.174,58.828,20.547,58.9,20.657v56.566a4.925,4.925,0,0,1-.362,1.865Zm113.771-.5h0a7.655,7.655,0,0,1-.108-.934c.035-.245.057-.5.081-.768a9.7,9.7,0,0,1,.22-1.533,20.366,20.366,0,0,1,2.2-5,28.889,28.889,0,0,1,8.1-7.8,113.191,113.191,0,0,1,18-9.3c3.711-1.638,8.612-3.662,13.8-5.7,1.674-5.394,3.572-11.508,5.4-17.5q1.19-3.955,2.379-7.9l.006-.02c2.55-8.458,5.187-17.2,7.716-25.784L394.344,0l36.4,51.584a4.522,4.522,0,0,0-.5.323l-99.328,74H276.845a4.481,4.481,0,0,0-.491.027Z" transform="translate(2.755 230.235)" fill="#474961"/>
            <path id="Legs-2" data-name="Legs" d="M84.727,301.8,9.917,274.825a15,15,0,0,1-8.488-20.489L73.33,101.28q-2.181-2.963-4.284-5.884c-.088-.18-.221-.226-.31-.406C53.081,73.146,57.383,43.458,78.428,29.412L99.335,15.543A43.131,43.131,0,0,1,129.061,8.9,55.139,55.139,0,0,1,146.8,1.63a52.061,52.061,0,0,1,19-.437L399.411,0s11.4,125.154-40.536,132.605c-26.623,3.82-71.337,3.62-108.6,2.518,21.791,26.977,43.555,54.558,64.751,82.262,1.5,1.939,4.763,6.577,4.752,12.479-.058,10.819-11.455,15.933-36.633,32.441-29.586,19.547-40.723,30.208-52.157,24.994a17.415,17.415,0,0,1-6.964-5.393c-12.3-16.61-40.324-47.863-71.242-83.505l-49.64,96.172A14.99,14.99,0,0,1,84.727,301.8Z" transform="translate(85.537)" fill="#a339ff"/>
            <path id="Shadow_legs" data-name="Shadow legs" d="M177.6,280.129h0a14.007,14.007,0,0,1-5.922-1.317,17.45,17.45,0,0,1-6.964-5.392c-9.3-12.562-27.852-33.791-49.335-58.373q-10.483-12-21.663-24.851l23.064-44.684c4.548-7.692,8.917-15.046,12.986-21.857,6.893.42,31.662,1.861,61,2.74,22.863,28.3,44.714,56.06,64.947,82.505a25.064,25.064,0,0,1,2.943,4.752,18.088,18.088,0,0,1,1.809,7.725c-.048,9.012-7.917,14.036-25.158,25.043-3.408,2.176-7.27,4.641-11.475,7.4-5.589,3.693-10.544,7.085-14.915,10.078-7.478,5.12-13.385,9.163-18.4,11.946C185.171,278.806,181.187,280.129,177.6,280.129Zm-163.338-187h0v0c-1.545-2.1-3.068-4.186-4.527-6.213a.753.753,0,0,0-.155-.2.753.753,0,0,1-.155-.2A50.056,50.056,0,0,1,1.183,68.214,47.473,47.473,0,0,1,.761,49.222a42.853,42.853,0,0,1,18.35-28.3L29.44,14.074l.621-.412,9.959-6.605A42.838,42.838,0,0,1,63.691,0,45.156,45.156,0,0,1,69.87.428C55.355,9.652,47.317,23.3,45.2,27.259Z" transform="translate(144.81 8.943)" fill="#444" opacity="0.177"/>
          </g>
          <g id="Body" transform="translate(248.046)">
            <path id="Shirt" d="M53.795,205.273c-11.1-9.954-8.661-33.739-8.661-33.739.348-9.32.692-17.99,1.033-26.064-14.179-1.5-38.575-3.894-38.575-3.894a9.1,9.1,0,0,1-7.528-9.022C-.744,122,6.282,101.127,7.812,96.707c3.5-9.9,9.8-29,12.1-37.8,6.4-24.9,14.3-34.2,17-36.9a54.577,54.577,0,0,1,8.1-6.8c13.5-9.3,27.8-10.7,35.1-10.9a1.272,1.272,0,0,1,.6-.1l16.35-.23A153.853,153.853,0,0,1,120.746.846c9.98-.7,20.282-1.429,30.446-.131l27.82.391a1.271,1.271,0,0,1,.6.1c7.3.2,21.6,1.6,35.1,10.9a54.577,54.577,0,0,1,8.1,6.8c2.7,2.7,10.6,12,17,36.9,2.3,8.8,8.6,27.9,12.1,37.8,1.312,3.79,5.031,21.191,6.951,30.347a4.171,4.171,0,0,1,.621,1.51,3.818,3.818,0,0,1-.024,1.346c.365,1.757.583,2.815.583,2.815s-.873.016-2.462.063a8.521,8.521,0,0,1-4.449,1.714L226,134.277c4.378,27.074,4.892,49.779,2.44,63.976a3.521,3.521,0,0,1-.222,1.048c-.486,2.848-133.291,6.179-166.82,6.18A57.868,57.868,0,0,1,53.795,205.273Z" transform="translate(11.324 98.074)" fill="#ffcb3d"/>
            <path id="Tie" d="M15.2,134.372a1,1,0,0,1-.743-.331L.257,118.259a1,1,0,0,1-.248-.8l13.5-102.651a5.97,5.97,0,0,1-3.775-4.97L26.2,0,37.413,11.808l-.013.1a6,6,0,0,1-4.009,4.96L31.877,119.7a1,1,0,0,1-.342.739L15.86,134.125A1,1,0,0,1,15.2,134.372Z" transform="translate(114.105 114.482)" fill="#de3190"/>
            <path id="Shadow_Shirt" data-name="Shadow Shirt" d="M26.567,1.452C20.966,2.962,0,5.035,0,11.927S2.719,35.581,2.719,35.581L26.284,18.553,46.245,36.2s13.8-27.03,2.327-32.447S32.168-.057,26.567,1.452Z" transform="matrix(0.996, 0.087, -0.087, 0.996, 115.739, 93.709)" fill="#8c2a00" opacity="0.2"/>
            <path id="Skin" d="M74.116,305.24h0ZM74.118,305.24Zm-74.1,0A20.352,20.352,0,0,1,3.27,293.693a37.962,37.962,0,0,1,7.852-8.895,58.82,58.82,0,0,1,5.669-4.253l5.582-40.734,24.96,2.407,10.594,1.168-.655,23.557a66.7,66.7,0,0,1,9.641-.877c21.468-5.087,94.678-22.17,135.408-28.4l-.212-2,63.046-6.681a8.547,8.547,0,0,0,4.449-1.714l1.072-.03c2.345,18.257,1.449,33.807-2.661,46.221a49.908,49.908,0,0,1-11.281,19.255,44.18,44.18,0,0,1-9.186,7.249,51.885,51.885,0,0,1-11.954,5.126H74.074c.013.049.028.1.043.142H.016ZM125.007,105.969a1.922,1.922,0,0,1-1.031-2.035l2.965-17.28c-5.546.919-5.219.782-5.758.852-.832.048-1.643.068-2.428.068a35.482,35.482,0,0,1-10.267-1.313c-3.477-.982-6.635-4.652-9-10.307-3.218-7.553-5.22-18.741-4.956-31.627a33.083,33.083,0,0,1,.441-5.415L98,21.265a23.937,23.937,0,0,1,4.962-10.853,17.3,17.3,0,0,1,3.316-3.43C113.68.529,122.8-.434,129.87.142a42.666,42.666,0,0,1,9.478,1.649c.865.27,3.929,1.274,8.388,2.445,2.416.673,4.378,1.055,5.538,1.382,14.512,3.432,20.647,2.791,27.246,8.149a22.477,22.477,0,0,1,6.119,7.3c5.866,11.225,1.559,23.427.343,27.062-3.942,10.847-11.757,16.459-14.273,18.924a87.872,87.872,0,0,1-11.137,8.752l-4.907,30.813a1.853,1.853,0,0,1-1.208,1.5,35.152,35.152,0,0,1-11.54,2.239q-.616.02-1.219.021A38.361,38.361,0,0,1,125.007,105.969Z" transform="translate(0 0.141)" fill="#db9e75"/>
            <path id="Shadow_Arm" data-name="Shadow Arm" d="M0,40.545v0L5.556,0,41.109,3.428,40.419,26.5c-.158.026-16.417,2.739-23.479,5.193C9.845,34.158.1,40.481,0,40.544Z" transform="translate(16.817 239.954)" fill="#8c2a00" opacity="0.2"/>
            <path id="Shadow" d="M1.261,64.418A1.5,1.5,0,0,1,.019,62.7C1.243,55.114,4.441,29.51,7.262,5.935a1.5,1.5,0,1,1,2.978.356C7.412,29.936,4.214,55.53,2.98,63.176A1.5,1.5,0,0,1,1.5,64.438,1.516,1.516,0,0,1,1.261,64.418Zm144.176-6.962c-1.576-7.52-7.765-32.568-13.581-55.589a1.5,1.5,0,1,1,2.909-.734c5.833,23.088,12.02,48.127,13.608,55.708a1.5,1.5,0,1,1-2.936.616Z" transform="translate(56.127 179.181)" fill="#482d1f"/>
            <path id="Shadow-2" data-name="Shadow" d="M0,6.291,14.289,0,.326,15.188Z" transform="translate(127.92 80.699) rotate(11)" fill="#482d1f"/>
            <path id="Eyes" d="M18.268,4.685c.641-1.2,1.385-1.36,2.17-1.208a2.379,2.379,0,0,1,1.838,2.6c-.226,1.688-.76,4.437-1.971,5.423a.985.985,0,0,1-.6.228C18.138,11.727,16.856,7.3,18.268,4.685ZM.931,1.112C1.67-.068,2.4-.131,3.161.12A2.48,2.48,0,0,1,4.647,2.956C4.225,4.6,3.4,7.3,2.224,8.087a1.051,1.051,0,0,1-.534.159C.068,8.246-.759,3.642.931,1.112Z" transform="translate(100.797 39.757)" fill="#482d1f"/>
            <path id="Mouth" d="M6.5,2.9c.7-.2,2.4-.7,2.7-1.8,0-.2.1-.5,0-.7C8.8-.3,7.6.1,5.8.2A36.524,36.524,0,0,1,0,.1,13.009,13.009,0,0,0,1.2,2.7C2.3,4.2,5.5,3.2,6.5,2.9Z" transform="translate(105.266 60.399) rotate(11)" fill="#482d1f"/>
            <path id="Nose" d="M2.263,19.922c-.161-.013-.161-.013-.411-.036A2.2,2.2,0,0,1,.026,17.461L1.516,6.83V1a1,1,0,0,1,2,0V6.9l-.01.139L2,17.764c0,.02.087.134.09.139l.324.025c1.64.126,2.645.172,4.4.172a1,1,0,1,1,0,2C5.005,20.1,3.95,20.052,2.263,19.922Z" transform="translate(108.081 36.4) rotate(11)" fill="#482d1f"/>
            <path id="Ear" d="M8.812,1.155a14.491,14.491,0,0,1-1.4,8.685A13.171,13.171,0,0,1,.581,16.192a1,1,0,1,0,.838,1.816,16.815,16.815,0,0,0,3.506-2.092,14.924,14.924,0,0,0,4.269-5.168,16.479,16.479,0,0,0,1.594-9.9,1,1,0,1,0-1.976.309Z" transform="translate(162.427 44.62) rotate(11)" fill="#482d1f"/>
            <path id="Hair" d="M88.693,52.165A127.575,127.575,0,0,1,73.5,47a13.012,13.012,0,0,0-1.184-5.341c-2.118-4.664-6.962-8.049-11.518-8.049a9.211,9.211,0,0,0-1.194.076,11.276,11.276,0,0,0-5.135,2.182l-.088.063a16.957,16.957,0,0,0-2.336,2.454L0,24.327H0v-.005a30.952,30.952,0,0,1,2.791-9.156A27.48,27.48,0,0,1,7.969,7.7a24.293,24.293,0,0,1,9.2-5.838A42.849,42.849,0,0,1,29.794,0a32.738,32.738,0,0,1,4.185.254,165.952,165.952,0,0,1,21.75,4.613l.739.2a42.767,42.767,0,0,0,4.666.893c1.042.16,1.942.3,2.363.423A47.386,47.386,0,0,1,77.8,10.1a31.375,31.375,0,0,1,8.127,4.852,20.617,20.617,0,0,1,5.368,7.156A29.38,29.38,0,0,1,93.8,30.939,34.234,34.234,0,0,1,93.811,39,31.884,31.884,0,0,1,91.1,49.067a10.882,10.882,0,0,1-2.4,3.1ZM21.817,38.872a1.258,1.258,0,0,1-.071-2.255,6.975,6.975,0,0,1,4.82-.693c4.025.782,7.809,4.37,3.084,4.572a9.8,9.8,0,0,1-1.065.057A18.126,18.126,0,0,1,21.817,38.872ZM1.729,34.254a1.31,1.31,0,0,1-.169-2.273,6.891,6.891,0,0,1,4.722-.712c4.025.782,7.828,4.272,3.084,4.572-.317.031-.638.045-.96.045A16.451,16.451,0,0,1,1.729,34.254Z" transform="translate(97.414)" fill="#482d1f"/>
          </g>
        </g>
      </g>
      <g id="Table_4" data-name="Table / 4" transform="translate(0 377)">
        <path id="Combined_Shape-2" data-name="Combined Shape" d="M0,371.5V7.5A7,7,0,0,1,5.547.651,6.973,6.973,0,0,1,8.5,0h595a7,7,0,0,1,0,14H14V371.5a7,7,0,0,1-14,0Z" fill="#d8deed"/>
      </g>
      <g id="Documents" transform="translate(69 262)">
        <rect id="Rectangle" width="190" height="29" rx="14.5" transform="translate(9 87)" fill="#474961"/>
        <rect id="Rectangle_Copy_2" data-name="Rectangle Copy 2" width="190" height="29" rx="14.5" transform="translate(0 29)" fill="#474961"/>
        <rect id="Rectangle_Copy" data-name="Rectangle Copy" width="190" height="29" rx="14.5" transform="translate(30 58)" fill="#de3190"/>
        <rect id="Rectangle_Copy_3" data-name="Rectangle Copy 3" width="190" height="29" rx="14.5" transform="translate(15)" fill="#de3190"/>
      </g>
    </g>
    <g id="UI_Users_User_1_2" data-name="UI / Users / User 1 / 2" transform="translate(1153 149.862)">
      <g id="Users">
        <g id="Browser">
          <g id="Background">
            <rect id="Background-2" data-name="Background" width="265.734" height="218.138" rx="20" fill="#f2f6fb"/>
          </g>
        </g>
        <g id="Userpic" transform="translate(44.551 33.607)">
          <g id="Userpic-2" data-name="Userpic" transform="translate(0 0)">
            <g id="Group_2-2" data-name="Group 2">
              <ellipse id="Oval" cx="22.538" cy="26.274" rx="22.538" ry="26.274" fill="#d8deed"/>
              <ellipse id="Oval-2" data-name="Oval" cx="22.538" cy="26.274" rx="22.538" ry="26.274" transform="translate(66.04)" fill="#d8deed"/>
              <ellipse id="Oval_Copy" data-name="Oval Copy" cx="22.538" cy="26.274" rx="22.538" ry="26.274" transform="translate(132.081)" fill="#d8deed"/>
              <ellipse id="Oval-3" data-name="Oval" cx="22.538" cy="26.58" rx="22.538" ry="26.58" transform="translate(0 88.599)" fill="#d8deed"/>
              <ellipse id="Oval-4" data-name="Oval" cx="22.538" cy="26.58" rx="22.538" ry="26.58" transform="translate(66.04 88.599)" fill="#d8deed"/>
              <ellipse id="Oval-5" data-name="Oval" cx="22.8" cy="26.58" rx="22.8" ry="26.58" transform="translate(131.557 88.599)" fill="#d8deed"/>
            </g>
            <g id="Icons_User" data-name="Icons / User" transform="translate(12.055 13.443)">
              <path id="Combined_Shape-3" data-name="Combined Shape" d="M0,27.5c0-6.412,4.693-11.61,10.482-11.61s10.482,5.2,10.482,11.61ZM4.717,6.416C4.717,2.872,7.3,0,10.482,0s5.765,2.872,5.765,6.416-2.581,6.415-5.765,6.415S4.717,9.959,4.717,6.416Z" transform="translate(0 0)" fill="#f2f6fb"/>
            </g>
          </g>
        </g>
        <g id="Userpic-3" data-name="Userpic" transform="translate(122.646 47.049)">
          <g id="Userpic-4" data-name="Userpic" transform="translate(0 0)">
            <g id="Icons_User-2" data-name="Icons / User" transform="translate(0)">
              <path id="Combined_Shape-4" data-name="Combined Shape" d="M0,27.5c0-6.412,4.576-11.61,10.221-11.61s10.22,5.2,10.22,11.61ZM4.717,6.416C4.717,2.872,7.3,0,10.482,0s5.765,2.872,5.765,6.416-2.581,6.415-5.765,6.415S4.717,9.959,4.717,6.416Z" fill="#f2f6fb"/>
              <path id="Combined_Shape_Copy" data-name="Combined Shape Copy" d="M0,27.5c0-6.412,4.576-11.61,10.221-11.61s10.22,5.2,10.22,11.61ZM4.717,6.416C4.717,2.872,7.3,0,10.482,0s5.765,2.872,5.765,6.416-2.581,6.415-5.765,6.415S4.717,9.959,4.717,6.416Z" transform="translate(66.04)" fill="#f2f6fb"/>
            </g>
          </g>
        </g>
        <g id="Userpic-5" data-name="Userpic" transform="translate(56.606 135.038)">
          <g id="Userpic-6" data-name="Userpic" transform="translate(0 0)">
            <g id="Icons_User-3" data-name="Icons / User" transform="translate(0 0)">
              <path id="Combined_Shape-5" data-name="Combined Shape" d="M0,28.107c0-6.749,4.693-12.22,10.482-12.22s10.482,5.471,10.482,12.22ZM4.717,6.721C4.717,3.009,7.3,0,10.482,0s5.765,3.009,5.765,6.721-2.581,6.721-5.765,6.721S4.717,10.433,4.717,6.721Z" fill="#f2f6fb"/>
            </g>
          </g>
        </g>
        <g id="Userpic-7" data-name="Userpic" transform="translate(122.646 135.038)">
          <g id="Userpic-8" data-name="Userpic" transform="translate(0 0)">
            <g id="Icons_User-4" data-name="Icons / User" transform="translate(0 0)">
              <path id="Combined_Shape-6" data-name="Combined Shape" d="M0,28.107c0-6.749,4.576-12.22,10.221-12.22s10.22,5.471,10.22,12.22ZM4.717,6.721C4.717,3.009,7.3,0,10.482,0s5.765,3.009,5.765,6.721-2.581,6.721-5.765,6.721S4.717,10.433,4.717,6.721Z" fill="#f2f6fb"/>
            </g>
          </g>
        </g>
        <g id="Userpic-9" data-name="Userpic" transform="translate(188.687 135.038)">
          <g id="Userpic-10" data-name="Userpic" transform="translate(0 0)">
            <g id="Icons_User-5" data-name="Icons / User" transform="translate(0 0)">
              <path id="Combined_Shape-7" data-name="Combined Shape" d="M0,28.107c0-6.749,4.576-12.22,10.221-12.22s10.22,5.471,10.22,12.22ZM4.717,6.721C4.717,3.009,7.3,0,10.482,0s5.765,3.009,5.765,6.721-2.581,6.721-5.765,6.721S4.717,10.433,4.717,6.721Z" fill="#f2f6fb"/>
            </g>
          </g>
        </g>
        <g id="Text" transform="translate(44.551 92.877)">
          <rect id="Text-2" data-name="Text" width="45.075" height="10.999" rx="5.499" transform="translate(0 0)" fill="#e1e5f0"/>
        </g>
        <g id="Text-3" data-name="Text" transform="translate(110.591 92.877)">
          <rect id="Text-4" data-name="Text" width="45.075" height="10.999" rx="5.499" transform="translate(0 0)" fill="#e1e5f0"/>
        </g>
        <g id="Text-5" data-name="Text" transform="translate(176.108 92.877)">
          <rect id="Text-6" data-name="Text" width="45.599" height="10.999" rx="5.499" transform="translate(0 0)" fill="#e1e5f0"/>
        </g>
        <g id="Text-7" data-name="Text" transform="translate(44.551 181.476)">
          <rect id="Text-8" data-name="Text" width="45.075" height="10.999" rx="5.499" transform="translate(0 0)" fill="#e1e5f0"/>
        </g>
        <g id="Text-9" data-name="Text" transform="translate(110.591 181.476)">
          <rect id="Text-10" data-name="Text" width="45.075" height="10.999" rx="5.499" transform="translate(0 0)" fill="#e1e5f0"/>
        </g>
        <g id="Text-11" data-name="Text" transform="translate(176.108 181.476)">
          <rect id="Text-12" data-name="Text" width="45.599" height="10.999" rx="5.499" transform="translate(0 0)" fill="#e1e5f0"/>
        </g>
      </g>
    </g>
  </g>
</svg>
